<svg width="201" height="32" viewBox="0 0 201 32" fill="none" xmlns="http://www.w3.org/2000/svg">
<path d="M26.2619 27.08C23.7819 29.96 20.0219 31.76 15.2619 31.76C6.54188 31.76 0.0218751 25.68 0.0218751 16.8C0.0218751 7.72 6.74188 1.92 15.3819 1.92C19.3419 1.92 23.6219 3.36 25.9819 6.08L21.3419 10.72C20.0619 8.96 17.7819 8.12 15.6219 8.12C10.8619 8.12 7.46188 11.8 7.46188 16.8C7.46188 21.96 10.7819 25.48 15.5019 25.48C18.1819 25.48 20.3019 24.28 21.5019 22.6L26.2619 27.08ZM45.4847 20.96C45.4847 27.48 40.4447 31.64 34.4047 31.64C28.4047 31.64 23.3647 27.48 23.3647 20.96C23.3647 14.44 28.4047 10.44 34.4047 10.44C40.4447 10.44 45.4847 14.44 45.4847 20.96ZM39.1647 20.96C39.1647 18.4 37.4847 15.88 34.4047 15.88C31.3247 15.88 29.7247 18.4 29.7247 20.96C29.7247 23.52 31.3647 26.12 34.4447 26.12C37.5247 26.12 39.1647 23.52 39.1647 20.96ZM66.7581 31H60.7181V28.4H60.6381C59.3581 30.4 56.7581 31.56 54.1181 31.56C48.1181 31.56 44.6381 26.52 44.6381 20.96C44.6381 15.4 48.2381 10.52 54.0381 10.52C56.9581 10.52 58.9981 11.88 60.1181 13.2H60.1981V0.759998H66.7581V31ZM60.4781 21C60.4781 18.48 58.6381 15.88 55.6781 15.88C52.5581 15.88 50.9581 18.4 50.9581 20.96C50.9581 23.56 52.5581 26.12 55.6781 26.12C58.6381 26.12 60.4781 23.6 60.4781 21ZM73.2463 18.76H81.6863C81.6863 16.68 80.3663 14.96 77.7663 14.96C75.2463 14.96 73.4063 16.72 73.2463 18.76ZM87.7263 21.28C87.7263 21.8 87.7263 22.36 87.6863 22.84H73.2463C73.4463 25.04 75.6463 26.6 78.0063 26.6C80.0863 26.6 81.5263 25.72 82.4063 24.52L86.9663 27.4C85.0863 30.12 81.9663 31.64 77.9263 31.64C71.9263 31.64 66.9663 27.84 66.9663 21.12C66.9663 14.6 71.6863 10.44 77.7263 10.44C83.6063 10.44 87.7263 14.48 87.7263 21.28ZM126.234 2.68L118.154 31H111.394L105.794 11.84H105.674L100.074 31H93.2744L85.2344 2.68H92.5944L97.0744 21.52H97.1944L102.234 2.68H109.354L114.434 21.52H114.554L119.114 2.68H126.234ZM128.645 18.76H137.085C137.085 16.68 135.765 14.96 133.165 14.96C130.645 14.96 128.805 16.72 128.645 18.76ZM143.125 21.28C143.125 21.8 143.125 22.36 143.085 22.84H128.645C128.845 25.04 131.045 26.6 133.405 26.6C135.485 26.6 136.925 25.72 137.805 24.52L142.365 27.4C140.485 30.12 137.365 31.64 133.325 31.64C127.325 31.64 122.365 27.84 122.365 21.12C122.365 14.6 127.085 10.44 133.125 10.44C139.005 10.44 143.125 14.48 143.125 21.28ZM154.718 23V22.32H153.878C150.998 22.32 147.758 22.68 147.758 25.04C147.758 26.56 149.278 27.08 150.598 27.08C153.238 27.08 154.718 25.48 154.718 23ZM145.998 17.36L142.678 13.8C144.998 11.6 148.318 10.44 151.558 10.44C158.238 10.44 160.718 13.72 160.718 20.96V31H154.718V28.88H154.598C153.598 30.52 151.318 31.48 148.958 31.48C145.798 31.48 141.718 29.92 141.718 25.24C141.718 19.48 148.718 18.52 154.518 18.52V18.2C154.518 16.24 152.958 15.32 150.918 15.32C149.038 15.32 147.198 16.24 145.998 17.36ZM181.775 11.08L173.935 31H166.855L159.015 11.08H166.255L170.455 24H170.575L174.775 11.08H181.775ZM185.59 18.76H194.03C194.03 16.68 192.71 14.96 190.11 14.96C187.59 14.96 185.75 16.72 185.59 18.76ZM200.07 21.28C200.07 21.8 200.07 22.36 200.03 22.84H185.59C185.79 25.04 187.99 26.6 190.35 26.6C192.43 26.6 193.87 25.72 194.75 24.52L199.31 27.4C197.43 30.12 194.31 31.64 190.27 31.64C184.27 31.64 179.31 27.84 179.31 21.12C179.31 14.6 184.03 10.44 190.07 10.44C195.95 10.44 200.07 14.48 200.07 21.28Z" fill="#007BFF"/>
</svg>
